<svg xmlns="http://www.w3.org/2000/svg" xmlns:xlink="http://www.w3.org/1999/xlink" width="254" zoomAndPan="magnify" viewBox="0 0 190.5 37.5" height="50" preserveAspectRatio="xMidYMid meet" version="1.0"><defs><g/><clipPath id="f725d6792f"><path d="M 1.007812 2 L 17 2 L 17 32 L 1.007812 32 Z M 1.007812 2 " clip-rule="nonzero"/></clipPath></defs><g clip-path="url(#f725d6792f)"><g fill="#ffffff" fill-opacity="1"><g transform="translate(0.00111646, 31.825658)"><g><path d="M 6.875 -21.765625 L 6.875 -11.734375 L 11.3125 -11.734375 L 11.3125 -21.765625 C 11.3125 -22.410156 11.117188 -22.988281 10.734375 -23.5 C 10.347656 -24.007812 9.804688 -24.265625 9.109375 -24.265625 C 8.398438 -24.265625 7.847656 -24.007812 7.453125 -23.5 C 7.066406 -22.988281 6.875 -22.410156 6.875 -21.765625 Z M 16.890625 -22.078125 L 16.890625 -0.828125 C 16.890625 -0.617188 16.835938 -0.425781 16.734375 -0.25 C 16.628906 -0.0820312 16.457031 0 16.21875 0 L 11.984375 0 C 11.773438 0 11.609375 -0.0820312 11.484375 -0.25 C 11.367188 -0.414062 11.3125 -0.609375 11.3125 -0.828125 L 11.3125 -6.875 L 6.875 -6.875 L 6.875 -0.8125 C 6.875 -0.59375 6.832031 -0.398438 6.75 -0.234375 C 6.664062 -0.078125 6.5 0 6.25 0 L 1.859375 0 C 1.703125 0 1.570312 -0.078125 1.46875 -0.234375 C 1.363281 -0.398438 1.3125 -0.59375 1.3125 -0.8125 L 1.3125 -22.078125 C 1.3125 -23.078125 1.519531 -24.015625 1.9375 -24.890625 C 2.351562 -25.765625 2.914062 -26.53125 3.625 -27.1875 C 4.34375 -27.851562 5.171875 -28.375 6.109375 -28.75 C 7.054688 -29.125 8.050781 -29.3125 9.09375 -29.3125 C 10.132812 -29.3125 11.125 -29.125 12.0625 -28.75 C 13 -28.375 13.828125 -27.851562 14.546875 -27.1875 C 15.265625 -26.53125 15.832031 -25.765625 16.25 -24.890625 C 16.675781 -24.015625 16.890625 -23.078125 16.890625 -22.078125 Z M 16.890625 -22.078125 "/></g></g></g></g><g fill="#ffffff" fill-opacity="1"><g transform="translate(18.196341, 31.825658)"><g><path d="M 8.125 -11.421875 L 8.34375 -8.984375 L 8.5625 -11.421875 L 11.171875 -28.15625 C 11.203125 -28.394531 11.300781 -28.566406 11.46875 -28.671875 C 11.632812 -28.785156 11.8125 -28.84375 12 -28.84375 L 16.203125 -28.84375 C 16.390625 -28.84375 16.515625 -28.773438 16.578125 -28.640625 C 16.640625 -28.503906 16.644531 -28.316406 16.59375 -28.078125 L 10.796875 -0.734375 C 10.671875 -0.242188 10.40625 0 10 0 L 6.6875 0 C 6.269531 0 6 -0.242188 5.875 -0.734375 L 0.078125 -28.03125 C -0.0234375 -28.570312 0.109375 -28.84375 0.484375 -28.84375 L 4.671875 -28.84375 C 4.878906 -28.84375 5.0625 -28.785156 5.21875 -28.671875 C 5.382812 -28.566406 5.476562 -28.394531 5.5 -28.15625 Z M 8.125 -11.421875 "/></g></g></g><g fill="#ffffff" fill-opacity="1"><g transform="translate(34.890929, 31.825658)"><g><path d="M 7.046875 -28.03125 L 7.046875 -0.796875 C 7.046875 -0.265625 6.816406 0 6.359375 0 L 2.1875 0 C 1.726562 0 1.5 -0.265625 1.5 -0.796875 L 1.5 -28.03125 C 1.5 -28.570312 1.726562 -28.84375 2.1875 -28.84375 L 6.359375 -28.84375 C 6.816406 -28.84375 7.046875 -28.570312 7.046875 -28.03125 Z M 7.046875 -28.03125 "/></g></g></g><g fill="#ffffff" fill-opacity="1"><g transform="translate(43.457068, 31.825658)"><g><path d="M 16.21875 0 L 11.984375 0 C 11.773438 0 11.609375 -0.0820312 11.484375 -0.25 C 11.367188 -0.414062 11.3125 -0.609375 11.3125 -0.828125 L 11.3125 -21.765625 C 11.3125 -22.410156 11.117188 -22.988281 10.734375 -23.5 C 10.347656 -24.007812 9.804688 -24.265625 9.109375 -24.265625 C 8.398438 -24.265625 7.847656 -24.007812 7.453125 -23.5 C 7.066406 -22.988281 6.875 -22.410156 6.875 -21.765625 L 6.875 -0.8125 C 6.875 -0.59375 6.828125 -0.398438 6.734375 -0.234375 C 6.648438 -0.078125 6.488281 0 6.25 0 L 1.859375 0 C 1.703125 0 1.570312 -0.078125 1.46875 -0.234375 C 1.363281 -0.398438 1.3125 -0.59375 1.3125 -0.8125 L 1.3125 -22.078125 C 1.3125 -23.078125 1.519531 -24.015625 1.9375 -24.890625 C 2.351562 -25.765625 2.914062 -26.53125 3.625 -27.1875 C 4.34375 -27.851562 5.171875 -28.375 6.109375 -28.75 C 7.054688 -29.125 8.050781 -29.3125 9.09375 -29.3125 C 10.132812 -29.3125 11.125 -29.125 12.0625 -28.75 C 13 -28.375 13.828125 -27.851562 14.546875 -27.1875 C 15.265625 -26.53125 15.832031 -25.765625 16.25 -24.890625 C 16.675781 -24.015625 16.890625 -23.078125 16.890625 -22.078125 L 16.890625 -0.828125 C 16.890625 -0.617188 16.835938 -0.425781 16.734375 -0.25 C 16.628906 -0.0820312 16.457031 0 16.21875 0 Z M 16.21875 0 "/></g></g></g><g fill="#ffffff" fill-opacity="1"><g transform="translate(61.652293, 31.825658)"><g><path d="M 16.21875 0 L 11.984375 0 C 11.773438 0 11.609375 -0.0820312 11.484375 -0.25 C 11.367188 -0.414062 11.3125 -0.609375 11.3125 -0.828125 L 11.3125 -21.765625 C 11.3125 -22.410156 11.117188 -22.988281 10.734375 -23.5 C 10.347656 -24.007812 9.804688 -24.265625 9.109375 -24.265625 C 8.398438 -24.265625 7.847656 -24.007812 7.453125 -23.5 C 7.066406 -22.988281 6.875 -22.410156 6.875 -21.765625 L 6.875 -0.8125 C 6.875 -0.59375 6.828125 -0.398438 6.734375 -0.234375 C 6.648438 -0.078125 6.488281 0 6.25 0 L 1.859375 0 C 1.703125 0 1.570312 -0.078125 1.46875 -0.234375 C 1.363281 -0.398438 1.3125 -0.59375 1.3125 -0.8125 L 1.3125 -22.078125 C 1.3125 -23.078125 1.519531 -24.015625 1.9375 -24.890625 C 2.351562 -25.765625 2.914062 -26.53125 3.625 -27.1875 C 4.34375 -27.851562 5.171875 -28.375 6.109375 -28.75 C 7.054688 -29.125 8.050781 -29.3125 9.09375 -29.3125 C 10.132812 -29.3125 11.125 -29.125 12.0625 -28.75 C 13 -28.375 13.828125 -27.851562 14.546875 -27.1875 C 15.265625 -26.53125 15.832031 -25.765625 16.25 -24.890625 C 16.675781 -24.015625 16.890625 -23.078125 16.890625 -22.078125 L 16.890625 -0.828125 C 16.890625 -0.617188 16.835938 -0.425781 16.734375 -0.25 C 16.628906 -0.0820312 16.457031 0 16.21875 0 Z M 16.21875 0 "/></g></g></g><g fill="#ffffff" fill-opacity="1"><g transform="translate(79.847517, 31.825658)"><g><path d="M 16.609375 -22.046875 L 16.609375 -6.78125 C 16.609375 -5.644531 16.398438 -4.628906 15.984375 -3.734375 C 15.566406 -2.835938 14.992188 -2.078125 14.265625 -1.453125 C 13.546875 -0.828125 12.710938 -0.351562 11.765625 -0.03125 C 10.828125 0.289062 9.835938 0.453125 8.796875 0.453125 C 7.753906 0.453125 6.765625 0.285156 5.828125 -0.046875 C 4.898438 -0.390625 4.070312 -0.875 3.34375 -1.5 C 2.625 -2.125 2.0625 -2.882812 1.65625 -3.78125 C 1.25 -4.675781 1.046875 -5.675781 1.046875 -6.78125 L 1.046875 -22.046875 C 1.046875 -23.171875 1.25 -24.179688 1.65625 -25.078125 C 2.0625 -25.972656 2.625 -26.734375 3.34375 -27.359375 C 4.070312 -27.992188 4.898438 -28.472656 5.828125 -28.796875 C 6.765625 -29.117188 7.753906 -29.28125 8.796875 -29.28125 C 9.835938 -29.28125 10.828125 -29.117188 11.765625 -28.796875 C 12.710938 -28.472656 13.546875 -27.992188 14.265625 -27.359375 C 14.992188 -26.734375 15.566406 -25.976562 15.984375 -25.09375 C 16.398438 -24.207031 16.609375 -23.191406 16.609375 -22.046875 Z M 8.84375 -24.28125 C 8.132812 -24.28125 7.582031 -24.019531 7.1875 -23.5 C 6.789062 -22.988281 6.59375 -22.398438 6.59375 -21.734375 L 6.59375 -7.0625 C 6.59375 -6.414062 6.78125 -5.835938 7.15625 -5.328125 C 7.539062 -4.816406 8.085938 -4.5625 8.796875 -4.5625 C 9.515625 -4.5625 10.070312 -4.796875 10.46875 -5.265625 C 10.863281 -5.734375 11.0625 -6.289062 11.0625 -6.9375 L 11.0625 -21.734375 C 11.0625 -22.398438 10.863281 -22.988281 10.46875 -23.5 C 10.070312 -24.019531 9.53125 -24.28125 8.84375 -24.28125 Z M 8.84375 -24.28125 "/></g></g></g><g fill="#ffffff" fill-opacity="1"><g transform="translate(96.875489, 31.825658)"><g><path d="M 8.125 -11.421875 L 8.34375 -8.984375 L 8.5625 -11.421875 L 11.171875 -28.15625 C 11.203125 -28.394531 11.300781 -28.566406 11.46875 -28.671875 C 11.632812 -28.785156 11.8125 -28.84375 12 -28.84375 L 16.203125 -28.84375 C 16.390625 -28.84375 16.515625 -28.773438 16.578125 -28.640625 C 16.640625 -28.503906 16.644531 -28.316406 16.59375 -28.078125 L 10.796875 -0.734375 C 10.671875 -0.242188 10.40625 0 10 0 L 6.6875 0 C 6.269531 0 6 -0.242188 5.875 -0.734375 L 0.078125 -28.03125 C -0.0234375 -28.570312 0.109375 -28.84375 0.484375 -28.84375 L 4.671875 -28.84375 C 4.878906 -28.84375 5.0625 -28.785156 5.21875 -28.671875 C 5.382812 -28.566406 5.476562 -28.394531 5.5 -28.15625 Z M 8.125 -11.421875 "/></g></g></g><g fill="#ffffff" fill-opacity="1"><g transform="translate(112.903037, 31.825658)"><g><path d="M 6.875 -21.765625 L 6.875 -11.734375 L 11.3125 -11.734375 L 11.3125 -21.765625 C 11.3125 -22.410156 11.117188 -22.988281 10.734375 -23.5 C 10.347656 -24.007812 9.804688 -24.265625 9.109375 -24.265625 C 8.398438 -24.265625 7.847656 -24.007812 7.453125 -23.5 C 7.066406 -22.988281 6.875 -22.410156 6.875 -21.765625 Z M 16.890625 -22.078125 L 16.890625 -0.828125 C 16.890625 -0.617188 16.835938 -0.425781 16.734375 -0.25 C 16.628906 -0.0820312 16.457031 0 16.21875 0 L 11.984375 0 C 11.773438 0 11.609375 -0.0820312 11.484375 -0.25 C 11.367188 -0.414062 11.3125 -0.609375 11.3125 -0.828125 L 11.3125 -6.875 L 6.875 -6.875 L 6.875 -0.8125 C 6.875 -0.59375 6.832031 -0.398438 6.75 -0.234375 C 6.664062 -0.078125 6.5 0 6.25 0 L 1.859375 0 C 1.703125 0 1.570312 -0.078125 1.46875 -0.234375 C 1.363281 -0.398438 1.3125 -0.59375 1.3125 -0.8125 L 1.3125 -22.078125 C 1.3125 -23.078125 1.519531 -24.015625 1.9375 -24.890625 C 2.351562 -25.765625 2.914062 -26.53125 3.625 -27.1875 C 4.34375 -27.851562 5.171875 -28.375 6.109375 -28.75 C 7.054688 -29.125 8.050781 -29.3125 9.09375 -29.3125 C 10.132812 -29.3125 11.125 -29.125 12.0625 -28.75 C 13 -28.375 13.828125 -27.851562 14.546875 -27.1875 C 15.265625 -26.53125 15.832031 -25.765625 16.25 -24.890625 C 16.675781 -24.015625 16.890625 -23.078125 16.890625 -22.078125 Z M 16.890625 -22.078125 "/></g></g></g><g fill="#ffffff" fill-opacity="1"><g transform="translate(131.098262, 31.825658)"><g><path d="M 13.90625 -23.78125 L 10.03125 -23.78125 L 10.03125 -0.734375 C 10.03125 -0.492188 9.96875 -0.3125 9.84375 -0.1875 C 9.726562 -0.0625 9.585938 0 9.421875 0 L 5.0625 0 C 4.882812 0 4.738281 -0.0625 4.625 -0.1875 C 4.507812 -0.3125 4.453125 -0.492188 4.453125 -0.734375 L 4.453125 -23.78125 L 0.578125 -23.78125 C 0.398438 -23.78125 0.253906 -23.84375 0.140625 -23.96875 C 0.0351562 -24.09375 -0.015625 -24.28125 -0.015625 -24.53125 L -0.015625 -28.078125 C -0.015625 -28.328125 0.0351562 -28.515625 0.140625 -28.640625 C 0.253906 -28.773438 0.398438 -28.84375 0.578125 -28.84375 L 13.90625 -28.84375 C 14.082031 -28.84375 14.222656 -28.78125 14.328125 -28.65625 C 14.441406 -28.53125 14.5 -28.34375 14.5 -28.09375 L 14.5 -24.53125 C 14.5 -24.28125 14.441406 -24.09375 14.328125 -23.96875 C 14.222656 -23.84375 14.082031 -23.78125 13.90625 -23.78125 Z M 13.90625 -23.78125 "/></g></g></g><g fill="#ffffff" fill-opacity="1"><g transform="translate(145.562731, 31.825658)"><g><path d="M 7.046875 -28.03125 L 7.046875 -0.796875 C 7.046875 -0.265625 6.816406 0 6.359375 0 L 2.1875 0 C 1.726562 0 1.5 -0.265625 1.5 -0.796875 L 1.5 -28.03125 C 1.5 -28.570312 1.726562 -28.84375 2.1875 -28.84375 L 6.359375 -28.84375 C 6.816406 -28.84375 7.046875 -28.570312 7.046875 -28.03125 Z M 7.046875 -28.03125 "/></g></g></g><g fill="#ffffff" fill-opacity="1"><g transform="translate(154.12887, 31.825658)"><g><path d="M 16.609375 -22.046875 L 16.609375 -6.78125 C 16.609375 -5.644531 16.398438 -4.628906 15.984375 -3.734375 C 15.566406 -2.835938 14.992188 -2.078125 14.265625 -1.453125 C 13.546875 -0.828125 12.710938 -0.351562 11.765625 -0.03125 C 10.828125 0.289062 9.835938 0.453125 8.796875 0.453125 C 7.753906 0.453125 6.765625 0.285156 5.828125 -0.046875 C 4.898438 -0.390625 4.070312 -0.875 3.34375 -1.5 C 2.625 -2.125 2.0625 -2.882812 1.65625 -3.78125 C 1.25 -4.675781 1.046875 -5.675781 1.046875 -6.78125 L 1.046875 -22.046875 C 1.046875 -23.171875 1.25 -24.179688 1.65625 -25.078125 C 2.0625 -25.972656 2.625 -26.734375 3.34375 -27.359375 C 4.070312 -27.992188 4.898438 -28.472656 5.828125 -28.796875 C 6.765625 -29.117188 7.753906 -29.28125 8.796875 -29.28125 C 9.835938 -29.28125 10.828125 -29.117188 11.765625 -28.796875 C 12.710938 -28.472656 13.546875 -27.992188 14.265625 -27.359375 C 14.992188 -26.734375 15.566406 -25.976562 15.984375 -25.09375 C 16.398438 -24.207031 16.609375 -23.191406 16.609375 -22.046875 Z M 8.84375 -24.28125 C 8.132812 -24.28125 7.582031 -24.019531 7.1875 -23.5 C 6.789062 -22.988281 6.59375 -22.398438 6.59375 -21.734375 L 6.59375 -7.0625 C 6.59375 -6.414062 6.78125 -5.835938 7.15625 -5.328125 C 7.539062 -4.816406 8.085938 -4.5625 8.796875 -4.5625 C 9.515625 -4.5625 10.070312 -4.796875 10.46875 -5.265625 C 10.863281 -5.734375 11.0625 -6.289062 11.0625 -6.9375 L 11.0625 -21.734375 C 11.0625 -22.398438 10.863281 -22.988281 10.46875 -23.5 C 10.070312 -24.019531 9.53125 -24.28125 8.84375 -24.28125 Z M 8.84375 -24.28125 "/></g></g></g><g fill="#ffffff" fill-opacity="1"><g transform="translate(171.782198, 31.825658)"><g><path d="M 16.21875 0 L 11.984375 0 C 11.773438 0 11.609375 -0.0820312 11.484375 -0.25 C 11.367188 -0.414062 11.3125 -0.609375 11.3125 -0.828125 L 11.3125 -21.765625 C 11.3125 -22.410156 11.117188 -22.988281 10.734375 -23.5 C 10.347656 -24.007812 9.804688 -24.265625 9.109375 -24.265625 C 8.398438 -24.265625 7.847656 -24.007812 7.453125 -23.5 C 7.066406 -22.988281 6.875 -22.410156 6.875 -21.765625 L 6.875 -0.8125 C 6.875 -0.59375 6.828125 -0.398438 6.734375 -0.234375 C 6.648438 -0.078125 6.488281 0 6.25 0 L 1.859375 0 C 1.703125 0 1.570312 -0.078125 1.46875 -0.234375 C 1.363281 -0.398438 1.3125 -0.59375 1.3125 -0.8125 L 1.3125 -22.078125 C 1.3125 -23.078125 1.519531 -24.015625 1.9375 -24.890625 C 2.351562 -25.765625 2.914062 -26.53125 3.625 -27.1875 C 4.34375 -27.851562 5.171875 -28.375 6.109375 -28.75 C 7.054688 -29.125 8.050781 -29.3125 9.09375 -29.3125 C 10.132812 -29.3125 11.125 -29.125 12.0625 -28.75 C 13 -28.375 13.828125 -27.851562 14.546875 -27.1875 C 15.265625 -26.53125 15.832031 -25.765625 16.25 -24.890625 C 16.675781 -24.015625 16.890625 -23.078125 16.890625 -22.078125 L 16.890625 -0.828125 C 16.890625 -0.617188 16.835938 -0.425781 16.734375 -0.25 C 16.628906 -0.0820312 16.457031 0 16.21875 0 Z M 16.21875 0 "/></g></g></g></svg>